<svg width="20" height="20" viewBox="0 0 20 20" fill="none" xmlns="http://www.w3.org/2000/svg">
<path d="M9.99935 1.66666C12.2635 1.66666 12.546 1.67499 13.4343 1.71666C14.3218 1.75832 14.926 1.89749 15.4577 2.10416C16.0077 2.31582 16.471 2.60249 16.9343 3.06499C17.3581 3.48157 17.686 3.98548 17.8952 4.54166C18.101 5.07249 18.241 5.67749 18.2827 6.56499C18.3218 7.45332 18.3327 7.73582 18.3327 9.99999C18.3327 12.2642 18.3243 12.5467 18.2827 13.435C18.241 14.3225 18.101 14.9267 17.8952 15.4583C17.6866 16.0148 17.3586 16.5188 16.9343 16.935C16.5177 17.3586 16.0138 17.6865 15.4577 17.8958C14.9268 18.1017 14.3218 18.2417 13.4343 18.2833C12.546 18.3225 12.2635 18.3333 9.99935 18.3333C7.73518 18.3333 7.45268 18.325 6.56435 18.2833C5.67685 18.2417 5.07268 18.1017 4.54102 17.8958C3.98462 17.6871 3.48062 17.3591 3.06435 16.935C2.64052 16.5185 2.31263 16.0145 2.10352 15.4583C1.89685 14.9275 1.75768 14.3225 1.71602 13.435C1.67685 12.5467 1.66602 12.2642 1.66602 9.99999C1.66602 7.73582 1.67435 7.45332 1.71602 6.56499C1.75768 5.67666 1.89685 5.07332 2.10352 4.54166C2.31205 3.98514 2.64002 3.48109 3.06435 3.06499C3.48074 2.64102 3.98471 2.3131 4.54102 2.10416C5.07268 1.89749 5.67602 1.75832 6.56435 1.71666C7.45268 1.67749 7.73518 1.66666 9.99935 1.66666ZM9.99935 5.83332C8.89428 5.83332 7.83447 6.27231 7.05307 7.05371C6.27167 7.83511 5.83268 8.89492 5.83268 9.99999C5.83268 11.1051 6.27167 12.1649 7.05307 12.9463C7.83447 13.7277 8.89428 14.1667 9.99935 14.1667C11.1044 14.1667 12.1642 13.7277 12.9456 12.9463C13.727 12.1649 14.166 11.1051 14.166 9.99999C14.166 8.89492 13.727 7.83511 12.9456 7.05371C12.1642 6.27231 11.1044 5.83332 9.99935 5.83332ZM15.416 5.62499C15.416 5.34872 15.3063 5.08377 15.1109 4.88842C14.9156 4.69307 14.6506 4.58332 14.3743 4.58332C14.0981 4.58332 13.8331 4.69307 13.6378 4.88842C13.4424 5.08377 13.3327 5.34872 13.3327 5.62499C13.3327 5.90126 13.4424 6.16621 13.6378 6.36156C13.8331 6.55691 14.0981 6.66666 14.3743 6.66666C14.6506 6.66666 14.9156 6.55691 15.1109 6.36156C15.3063 6.16621 15.416 5.90126 15.416 5.62499ZM9.99935 7.49999C10.6624 7.49999 11.2983 7.76338 11.7671 8.23222C12.236 8.70106 12.4993 9.33695 12.4993 9.99999C12.4993 10.663 12.236 11.2989 11.7671 11.7678C11.2983 12.2366 10.6624 12.5 9.99935 12.5C9.33631 12.5 8.70042 12.2366 8.23158 11.7678C7.76274 11.2989 7.49935 10.663 7.49935 9.99999C7.49935 9.33695 7.76274 8.70106 8.23158 8.23222C8.70042 7.76338 9.33631 7.49999 9.99935 7.49999Z" fill="currentColor"/>
</svg>
