<svg width="130" height="180" viewBox="0 0 130 180" fill="none" xmlns="http://www.w3.org/2000/svg">
<path d="M19.6568 138.732V141.965H17.418V154.886H13.6478V141.965H11.418V138.732H19.6568Z" fill="white"/>
<path d="M24.0269 141.645L23.8837 143.382C24.409 142.138 25.1702 141.479 26.1672 141.406V146.066C25.5046 146.066 25.018 146.165 24.7075 146.365C24.3971 146.565 24.206 146.844 24.1344 147.203C24.0628 147.556 24.0269 148.374 24.0269 149.658V154.886H20.409V141.645H24.0269Z" fill="white"/>
<path d="M30.215 146.774H26.821V145.886C26.821 144.862 26.9254 144.073 27.1344 143.521C27.3493 142.963 27.7762 142.47 28.415 142.045C29.0538 141.619 29.8837 141.406 30.9046 141.406C32.1284 141.406 33.0508 141.649 33.6717 142.134C34.2926 142.613 34.6658 143.205 34.7911 143.91C34.9165 144.609 34.9792 146.052 34.9792 148.241V154.886H31.4598V153.709C31.2389 154.181 30.9523 154.537 30.6001 154.776C30.2538 155.009 29.8389 155.126 29.3553 155.126C28.7225 155.126 28.1404 154.929 27.609 154.537C27.0837 154.138 26.821 153.27 26.821 151.933V150.845C26.821 149.854 26.9613 149.179 27.2419 148.82C27.5225 148.46 28.218 148.041 29.3284 147.562C30.5165 147.043 31.1523 146.694 31.2359 146.515C31.3195 146.335 31.3613 145.969 31.3613 145.417C31.3613 144.725 31.3135 144.276 31.218 144.07C31.1284 143.857 30.9762 143.751 30.7613 143.751C30.5165 143.751 30.3643 143.841 30.3046 144.02C30.2449 144.193 30.215 144.649 30.215 145.387V146.774ZM31.3613 148.59C30.7822 149.062 30.4449 149.458 30.3493 149.777C30.2598 150.097 30.215 150.556 30.215 151.154C30.215 151.839 30.2538 152.282 30.3314 152.481C30.415 152.681 30.5762 152.781 30.815 152.781C31.0419 152.781 31.1881 152.704 31.2538 152.551C31.3255 152.392 31.3613 151.979 31.3613 151.314V148.59Z" fill="white"/>
<path d="M39.9046 141.645L39.8419 142.863C40.1046 142.377 40.424 142.015 40.8001 141.775C41.1822 141.529 41.621 141.406 42.1165 141.406C42.7374 141.406 43.2449 141.569 43.6389 141.895C44.0329 142.221 44.2867 142.633 44.4001 143.132C44.5135 143.624 44.5702 144.449 44.5702 145.607V154.886H40.9523V145.716C40.9523 144.805 40.9255 144.25 40.8717 144.05C40.818 143.851 40.6687 143.751 40.424 143.751C40.1673 143.751 40.0061 143.867 39.9404 144.1C39.8747 144.326 39.8419 144.938 39.8419 145.936V154.886H36.224V141.645H39.9046Z" fill="white"/>
<path d="M53.212 145.876H50.0061V145.158C50.0061 144.546 49.9732 144.16 49.9076 144C49.8479 143.834 49.6926 143.751 49.4419 143.751C49.2389 143.751 49.0867 143.827 48.9852 143.98C48.8837 144.127 48.8329 144.349 48.8329 144.649C48.8329 145.055 48.8568 145.354 48.9046 145.547C48.9583 145.733 49.1105 145.939 49.3613 146.165C49.618 146.392 50.1404 146.721 50.9285 147.153C51.9792 147.725 52.6688 148.264 52.9971 148.77C53.3255 149.275 53.4897 150.01 53.4897 150.975C53.4897 152.052 53.3643 152.867 53.1135 153.419C52.8628 153.965 52.4419 154.387 51.8509 154.686C51.2658 154.979 50.5583 155.126 49.7285 155.126C48.8091 155.126 48.021 154.966 47.3643 154.647C46.7135 154.327 46.2658 153.895 46.021 153.349C45.7762 152.804 45.6538 151.979 45.6538 150.875V150.236H48.8598V151.075C48.8598 151.786 48.8986 152.249 48.9762 152.461C49.0598 152.674 49.221 152.781 49.4598 152.781C49.7165 152.781 49.8956 152.711 49.9971 152.571C50.0986 152.425 50.1494 152.122 50.1494 151.663C50.1494 151.031 50.0837 150.635 49.9523 150.476C49.815 150.316 49.1135 149.844 47.8479 149.059C46.7852 148.394 46.1374 147.792 45.9046 147.253C45.6717 146.708 45.5553 146.062 45.5553 145.317C45.5553 144.26 45.6807 143.481 45.9314 142.982C46.1822 142.477 46.6061 142.088 47.2031 141.815C47.8061 141.542 48.5046 141.406 49.2986 141.406C50.0867 141.406 50.7553 141.519 51.3046 141.745C51.8598 141.965 52.2837 142.257 52.5762 142.623C52.8747 142.989 53.0538 143.328 53.1135 143.641C53.1792 143.954 53.212 144.443 53.212 145.108V145.876Z" fill="white"/>
<path d="M62.6777 141.645V151.843C62.6777 153.22 62.6479 154.111 62.5882 154.517C62.5344 154.916 62.3344 155.338 61.9882 155.784C61.6419 156.236 61.1583 156.579 60.5374 156.812C59.9225 157.051 59.1464 157.171 58.2091 157.171C57.0568 157.171 56.1315 156.951 55.4329 156.512C54.7344 156.08 54.3732 155.225 54.3494 153.948H57.8598C57.8598 154.533 58.0509 154.826 58.4329 154.826C58.7076 154.826 58.8897 154.736 58.9792 154.557C59.0688 154.377 59.1135 154.001 59.1135 153.429V152.431C58.8031 152.744 58.4747 152.98 58.1285 153.14C57.7882 153.3 57.43 153.379 57.0538 153.379C56.4031 153.379 55.8658 153.233 55.4419 152.94C55.024 152.648 54.7374 152.265 54.5822 151.793C54.427 151.314 54.3494 150.635 54.3494 149.757V144.948C54.3494 143.691 54.5523 142.786 54.9583 142.234C55.3643 141.682 55.9822 141.406 56.812 141.406C57.2658 141.406 57.6777 141.509 58.0479 141.715C58.424 141.922 58.7583 142.231 59.0509 142.643L59.3106 141.645H62.6777ZM59.0509 145.158C59.0509 144.552 59.018 144.167 58.9524 144C58.8926 143.834 58.7553 143.751 58.5404 143.751C58.3315 143.751 58.1822 143.847 58.0926 144.04C58.0091 144.226 57.9673 144.599 57.9673 145.158V149.608C57.9673 150.2 58.0001 150.586 58.0658 150.765C58.1315 150.938 58.2688 151.025 58.4777 151.025C58.7165 151.025 58.8718 150.918 58.9434 150.705C59.015 150.492 59.0509 150.01 59.0509 149.259V145.158Z" fill="white"/>
<path d="M67.2001 146.774H63.8061V145.886C63.8061 144.862 63.9106 144.073 64.1195 143.521C64.3344 142.963 64.7613 142.47 65.4001 142.045C66.0389 141.619 66.8688 141.406 67.8897 141.406C69.1136 141.406 70.0359 141.649 70.6568 142.134C71.2777 142.613 71.6509 143.205 71.7762 143.91C71.9016 144.609 71.9643 146.052 71.9643 148.241V154.886H68.4449V153.709C68.224 154.181 67.9374 154.537 67.5852 154.776C67.2389 155.009 66.824 155.126 66.3404 155.126C65.7076 155.126 65.1255 154.929 64.5941 154.537C64.0688 154.138 63.8061 153.27 63.8061 151.933V150.845C63.8061 149.854 63.9464 149.179 64.227 148.82C64.5076 148.46 65.2031 148.041 66.3136 147.562C67.5016 147.043 68.1374 146.694 68.221 146.515C68.3046 146.335 68.3464 145.969 68.3464 145.417C68.3464 144.725 68.2986 144.276 68.2031 144.07C68.1136 143.857 67.9613 143.751 67.7464 143.751C67.5016 143.751 67.3494 143.841 67.2897 144.02C67.23 144.193 67.2001 144.649 67.2001 145.387V146.774ZM68.3464 148.59C67.7673 149.062 67.43 149.458 67.3344 149.777C67.2449 150.097 67.2001 150.556 67.2001 151.154C67.2001 151.839 67.2389 152.282 67.3165 152.481C67.4001 152.681 67.5613 152.781 67.8001 152.781C68.027 152.781 68.1733 152.704 68.2389 152.551C68.3106 152.392 68.3464 151.979 68.3464 151.314V148.59Z" fill="white"/>
<path d="M80.5972 145.876H77.3912V145.158C77.3912 144.546 77.3583 144.16 77.2927 144C77.233 143.834 77.0777 143.751 76.827 143.751C76.624 143.751 76.4718 143.827 76.3703 143.98C76.2688 144.127 76.218 144.349 76.218 144.649C76.218 145.055 76.2419 145.354 76.2897 145.547C76.3434 145.733 76.4957 145.939 76.7464 146.165C77.0031 146.392 77.5255 146.721 78.3136 147.153C79.3643 147.725 80.0539 148.264 80.3822 148.77C80.7106 149.275 80.8748 150.01 80.8748 150.975C80.8748 152.052 80.7494 152.867 80.4986 153.419C80.2479 153.965 79.827 154.387 79.236 154.686C78.6509 154.979 77.9434 155.126 77.1136 155.126C76.1942 155.126 75.4061 154.966 74.7494 154.647C74.0986 154.327 73.6509 153.895 73.4061 153.349C73.1613 152.804 73.0389 151.979 73.0389 150.875V150.236H76.2449V151.075C76.2449 151.786 76.2837 152.249 76.3613 152.461C76.4449 152.674 76.6061 152.781 76.8449 152.781C77.1016 152.781 77.2807 152.711 77.3822 152.571C77.4837 152.425 77.5345 152.122 77.5345 151.663C77.5345 151.031 77.4688 150.635 77.3374 150.476C77.2001 150.316 76.4986 149.844 75.233 149.059C74.1703 148.394 73.5225 147.792 73.2897 147.253C73.0568 146.708 72.9404 146.062 72.9404 145.317C72.9404 144.26 73.0658 143.481 73.3165 142.982C73.5673 142.477 73.9912 142.088 74.5882 141.815C75.1912 141.542 75.8897 141.406 76.6837 141.406C77.4718 141.406 78.1404 141.519 78.6897 141.745C79.2449 141.965 79.6688 142.257 79.9613 142.623C80.2598 142.989 80.4389 143.328 80.4986 143.641C80.5643 143.954 80.5972 144.443 80.5972 145.108V145.876Z" fill="white"/>
<path d="M85.5673 138.732V140.837H81.8419V138.732H85.5673ZM85.5673 141.645V154.886H81.8419V141.645H85.5673Z" fill="white"/>
<path d="M90.5554 141.645L90.4927 142.863C90.7554 142.377 91.0748 142.015 91.4509 141.775C91.833 141.529 92.2718 141.406 92.7673 141.406C93.3882 141.406 93.8957 141.569 94.2897 141.895C94.6837 142.221 94.9375 142.633 95.0509 143.132C95.1643 143.624 95.221 144.449 95.221 145.607V154.886H91.6031V145.716C91.6031 144.805 91.5763 144.25 91.5225 144.05C91.4688 143.851 91.3196 143.751 91.0748 143.751C90.8181 143.751 90.6569 143.867 90.5912 144.1C90.5255 144.326 90.4927 144.938 90.4927 145.936V154.886H86.8748V141.645H90.5554Z" fill="white"/>
<path d="M104.705 138.732V154.886H101.087V153.928C100.74 154.327 100.376 154.627 99.9942 154.826C99.6121 155.026 99.2121 155.126 98.7942 155.126C98.233 155.126 97.7464 154.963 97.3345 154.637C96.9225 154.304 96.6569 153.922 96.5375 153.489C96.424 153.057 96.3673 152.352 96.3673 151.374V145.178C96.3673 144.16 96.424 143.438 96.5375 143.012C96.6569 142.587 96.9255 142.214 97.3434 141.895C97.7613 141.569 98.2599 141.406 98.839 141.406C99.2867 141.406 99.6957 141.496 100.066 141.675C100.442 141.855 100.782 142.124 101.087 142.484V138.732H104.705ZM101.087 144.978C101.087 144.492 101.048 144.167 100.97 144C100.899 143.834 100.752 143.751 100.532 143.751C100.317 143.751 100.17 143.827 100.093 143.98C100.021 144.127 99.9852 144.459 99.9852 144.978V151.464C99.9852 152.002 100.021 152.358 100.093 152.531C100.164 152.698 100.302 152.781 100.505 152.781C100.737 152.781 100.893 152.688 100.97 152.501C101.048 152.308 101.087 151.843 101.087 151.104V144.978Z" fill="white"/>
<path d="M114.188 146.295V149.538C114.188 150.729 114.135 151.603 114.027 152.162C113.92 152.714 113.69 153.233 113.337 153.719C112.985 154.198 112.532 154.553 111.976 154.786C111.427 155.012 110.794 155.126 110.078 155.126C109.278 155.126 108.6 155.029 108.045 154.836C107.49 154.637 107.057 154.341 106.746 153.948C106.442 153.549 106.224 153.07 106.093 152.511C105.961 151.946 105.896 151.101 105.896 149.977V146.584C105.896 145.354 106.015 144.393 106.254 143.701C106.493 143.009 106.923 142.454 107.543 142.035C108.164 141.616 108.958 141.406 109.926 141.406C110.737 141.406 111.433 141.542 112.012 141.815C112.597 142.081 113.048 142.43 113.364 142.863C113.681 143.295 113.896 143.741 114.009 144.2C114.129 144.659 114.188 145.357 114.188 146.295ZM110.57 145.297C110.57 144.619 110.537 144.193 110.472 144.02C110.406 143.841 110.266 143.751 110.051 143.751C109.836 143.751 109.693 143.841 109.621 144.02C109.549 144.193 109.514 144.619 109.514 145.297V151.274C109.514 151.899 109.549 152.308 109.621 152.501C109.693 152.688 109.833 152.781 110.042 152.781C110.257 152.781 110.397 152.694 110.463 152.521C110.534 152.348 110.57 151.976 110.57 151.404V145.297Z" fill="white"/>
<path d="M40.694 173.625L42.2072 173.779C42.0116 174.757 41.6333 175.48 41.0723 175.948C40.5113 176.416 39.8345 176.65 39.0419 176.65C37.9663 176.65 37.1376 176.259 36.5561 175.477C35.9796 174.69 35.6914 173.728 35.6914 172.591C35.6914 171.418 36.0079 170.448 36.641 169.681C37.274 168.915 38.1181 168.531 39.1732 168.531C40.8716 168.531 41.8829 169.427 42.2072 171.217L40.694 171.425C40.5602 170.458 40.0842 169.975 39.2658 169.975C38.6688 169.975 38.2339 170.237 37.9611 170.762C37.6935 171.281 37.5597 171.912 37.5597 172.652C37.5597 173.44 37.6986 174.047 37.9766 174.474C38.2596 174.901 38.6534 175.114 39.1577 175.114C39.9298 175.114 40.4419 174.618 40.694 173.625Z" fill="white"/>
<path d="M46.6077 176.65C45.4548 176.65 44.5747 176.236 43.9674 175.408C43.3601 174.579 43.0564 173.63 43.0564 172.56C43.0564 171.407 43.3909 170.448 44.06 169.681C44.7342 168.915 45.6221 168.531 46.7235 168.531C47.7683 168.531 48.6252 168.904 49.2943 169.65C49.9685 170.396 50.3056 171.366 50.3056 172.56C50.3056 173.789 49.9556 174.78 49.2557 175.531C48.5608 176.277 47.6782 176.65 46.6077 176.65ZM46.6694 175.199C47.8532 175.199 48.445 174.317 48.445 172.552C48.445 171.755 48.3035 171.127 48.0204 170.669C47.7374 170.206 47.3025 169.975 46.7157 169.975C46.1084 169.975 45.6581 170.214 45.3647 170.692C45.0714 171.166 44.9247 171.796 44.9247 172.583C44.9247 173.432 45.0791 174.08 45.3879 174.528C45.7018 174.975 46.129 175.199 46.6694 175.199Z" fill="white"/>
<path d="M58.3808 176.488H56.6207V171.618C56.6207 171.104 56.5023 170.718 56.2655 170.461C56.0288 170.198 55.7431 170.067 55.4086 170.067C54.9505 170.067 54.5491 170.268 54.2043 170.669C53.8594 171.07 53.687 171.675 53.687 172.483V176.488H51.9268V168.694H53.5326V170.499C54.0936 169.187 54.8811 168.531 55.895 168.531C56.5795 168.531 57.1636 168.748 57.6474 169.18C58.1364 169.612 58.3808 170.371 58.3808 171.456V176.488Z" fill="white"/>
<path d="M66.9502 176.488H65.19V171.618C65.19 171.104 65.0716 170.718 64.8349 170.461C64.5981 170.198 64.3125 170.067 63.9779 170.067C63.5199 170.067 63.1184 170.268 62.7736 170.669C62.4288 171.07 62.2563 171.675 62.2563 172.483V176.488H60.4962V168.694H62.1019V170.499C62.6629 169.187 63.4504 168.531 64.4643 168.531C65.1488 168.531 65.733 168.748 66.2168 169.18C66.7057 169.612 66.9502 170.371 66.9502 171.456V176.488Z" fill="white"/>
<path d="M74.0218 174.003L75.6122 174.219C75.4063 174.924 75.0048 175.505 74.4078 175.963C73.8108 176.421 73.0619 176.65 72.1613 176.65C71.0804 176.65 70.2106 176.287 69.5519 175.562C68.8931 174.836 68.5637 173.854 68.5637 172.614C68.5637 171.436 68.8957 170.461 69.5596 169.689C70.2235 168.917 71.1242 168.531 72.2616 168.531C73.3733 168.531 74.2328 168.912 74.8401 169.674C75.4475 170.435 75.7511 171.413 75.7511 172.606L75.7434 172.807H70.3934C70.3934 173.337 70.4422 173.761 70.54 174.08C70.643 174.399 70.8437 174.677 71.1422 174.914C71.4407 175.15 71.8139 175.269 72.2616 175.269C73.1314 175.269 73.7182 174.847 74.0218 174.003ZM73.9137 171.672C73.9086 171.112 73.7387 170.654 73.4042 170.299C73.0748 169.944 72.6656 169.766 72.1767 169.766C71.6929 169.766 71.2889 169.933 70.9646 170.268C70.6404 170.597 70.45 171.065 70.3934 171.672H73.9137Z" fill="white"/>
<path d="M81.8577 173.625L83.3709 173.779C83.1753 174.757 82.797 175.48 82.236 175.948C81.675 176.416 80.9982 176.65 80.2056 176.65C79.13 176.65 78.3013 176.259 77.7198 175.477C77.1433 174.69 76.8551 173.728 76.8551 172.591C76.8551 171.418 77.1716 170.448 77.8047 169.681C78.4377 168.915 79.2818 168.531 80.3369 168.531C82.0353 168.531 83.0466 169.427 83.3709 171.217L81.8577 171.425C81.7239 170.458 81.2478 169.975 80.4295 169.975C79.8325 169.975 79.3976 170.237 79.1248 170.762C78.8572 171.281 78.7234 171.912 78.7234 172.652C78.7234 173.44 78.8623 174.047 79.1403 174.474C79.4233 174.901 79.8171 175.114 80.3214 175.114C81.0934 175.114 81.6055 174.618 81.8577 173.625Z" fill="white"/>
<path d="M88.3349 175.114V176.488C87.81 176.601 87.4034 176.658 87.1151 176.658C86.6416 176.658 86.235 176.565 85.8954 176.38C85.5557 176.19 85.3061 175.932 85.1465 175.608C84.9921 175.279 84.9149 174.775 84.9149 174.096V170.059H83.9422V168.694H85.0153L85.1774 166.664L86.6211 166.533V168.694H88.1882V170.059H86.6211V173.864C86.6211 174.353 86.7085 174.687 86.8835 174.867C87.0637 175.042 87.4008 175.13 87.8949 175.13C88.0338 175.13 88.1805 175.125 88.3349 175.114Z" fill="white"/>
<path d="M4.59498 174.81L5.40902 174.977C5.26034 175.457 4.9704 175.854 4.53922 176.17C4.10804 176.482 3.60065 176.638 3.01707 176.638C2.24763 176.638 1.62502 176.369 1.14923 175.83C0.673441 175.288 0.435547 174.578 0.435547 173.701C0.435547 172.806 0.682734 172.083 1.17711 171.533C1.67148 170.979 2.29224 170.703 3.03937 170.703C3.77536 170.703 4.36638 170.957 4.81243 171.466C5.2622 171.975 5.49266 172.737 5.50381 173.751H1.41128C1.41128 174.602 1.58971 175.176 1.94655 175.473C2.30339 175.771 2.68067 175.919 3.0784 175.919C3.7958 175.919 4.30133 175.55 4.59498 174.81ZM4.5448 173.099C4.53736 172.783 4.48532 172.503 4.38868 172.258C4.29203 172.012 4.12848 171.804 3.89802 171.633C3.66756 171.459 3.39064 171.371 3.06725 171.371C2.63235 171.371 2.2625 171.527 1.9577 171.84C1.65661 172.152 1.48748 172.572 1.45031 173.099H4.5448Z" fill="white"/>
<path d="M11.2579 176.488H10.4383V172.871C10.4383 172.35 10.3249 171.984 10.0981 171.773C9.87139 171.561 9.59633 171.455 9.27294 171.455C8.82689 171.455 8.45146 171.633 8.14666 171.99C7.84558 172.347 7.69503 172.817 7.69503 173.4V176.488H6.81966V170.859H7.6337V171.895C8.09091 171.1 8.68378 170.703 9.41233 170.703C9.83237 170.703 10.1892 170.812 10.4829 171.031C10.7802 171.247 10.9828 171.49 11.0906 171.761C11.2021 172.033 11.2579 172.523 11.2579 173.233V176.488Z" fill="white"/>
<path d="M16.7276 174.81L17.5416 174.977C17.3929 175.457 17.103 175.854 16.6718 176.17C16.2406 176.482 15.7333 176.638 15.1497 176.638C14.3802 176.638 13.7576 176.369 13.2818 175.83C12.806 175.288 12.5681 174.578 12.5681 173.701C12.5681 172.806 12.8153 172.083 13.3097 171.533C13.8041 170.979 14.4248 170.703 15.172 170.703C15.908 170.703 16.499 170.957 16.945 171.466C17.3948 171.975 17.6253 172.737 17.6364 173.751H13.5439C13.5439 174.602 13.7223 175.176 14.0791 175.473C14.436 175.771 14.8133 175.919 15.211 175.919C15.9284 175.919 16.4339 175.55 16.7276 174.81ZM16.6774 173.099C16.67 172.783 16.6179 172.503 16.5213 172.258C16.4246 172.012 16.2611 171.804 16.0306 171.633C15.8002 171.459 15.5232 171.371 15.1999 171.371C14.765 171.371 14.3951 171.527 14.0903 171.84C13.7892 172.152 13.6201 172.572 13.5829 173.099H16.6774Z" fill="white"/>
<path d="M19.8276 176.488H18.9523V170.859H19.7217V172.174C19.993 171.553 20.2644 171.152 20.5357 170.97C20.8108 170.784 21.0914 170.691 21.3777 170.691C21.4669 170.691 21.5821 170.699 21.7234 170.714V171.55H21.5449C21.0617 171.55 20.6603 171.73 20.3406 172.09C20.0209 172.451 19.8499 172.924 19.8276 173.512V176.488Z" fill="white"/>
<path d="M27.3213 169.978V170.675C26.9199 170.675 26.6504 170.721 26.5128 170.814C26.379 170.907 26.2898 171.074 26.2452 171.316C26.6058 171.732 26.786 172.185 26.786 172.676C26.786 173.188 26.589 173.629 26.195 173.996C25.8047 174.364 25.2788 174.548 24.6171 174.548C24.4684 174.548 24.3402 174.537 24.2324 174.515C24.028 174.474 23.8997 174.454 23.8477 174.454C23.7473 174.454 23.6265 174.504 23.4853 174.604C23.344 174.701 23.2734 174.827 23.2734 174.983C23.2734 175.206 23.3756 175.351 23.58 175.418C23.7845 175.485 24.2658 175.527 25.0241 175.546C25.6672 175.564 26.1411 175.609 26.4459 175.68C26.7544 175.747 27.0146 175.899 27.2265 176.137C27.4384 176.371 27.5443 176.659 27.5443 177.001C27.5443 178.074 26.6002 178.611 24.7119 178.611C23.8161 178.611 23.1619 178.476 22.7493 178.205C22.3404 177.937 22.136 177.578 22.136 177.129C22.136 176.583 22.4222 176.207 22.9946 176.003C22.6266 175.761 22.4426 175.459 22.4426 175.094C22.4426 174.66 22.7028 174.327 23.2232 174.097C22.7363 173.703 22.4928 173.207 22.4928 172.609C22.4928 172.051 22.701 171.594 23.1173 171.238C23.5336 170.881 24.041 170.703 24.6394 170.703C25.0632 170.703 25.4479 170.782 25.7936 170.942C25.8493 170.574 25.9776 170.32 26.1783 170.179C26.3827 170.037 26.6913 169.967 27.1039 169.967C27.1447 169.967 27.2172 169.971 27.3213 169.978ZM24.645 173.879C25.0167 173.879 25.3196 173.766 25.5538 173.539C25.788 173.309 25.9051 173.012 25.9051 172.648C25.9051 172.276 25.7824 171.973 25.5371 171.739C25.2955 171.501 25.0018 171.382 24.6561 171.382C24.3253 171.382 24.0317 171.494 23.7752 171.717C23.5187 171.936 23.3905 172.25 23.3905 172.659C23.3905 173.023 23.5057 173.318 23.7362 173.545C23.9666 173.768 24.2696 173.879 24.645 173.879ZM23.5968 176.259C23.1879 176.438 22.9835 176.696 22.9835 177.034C22.9835 177.32 23.1507 177.541 23.4853 177.697C23.8235 177.857 24.2528 177.937 24.7732 177.937C25.2565 177.937 25.6988 177.868 26.1002 177.731C26.5017 177.597 26.7024 177.368 26.7024 177.045C26.7024 176.871 26.6429 176.728 26.524 176.616C26.405 176.505 26.2415 176.434 26.0333 176.404C25.8289 176.375 25.4702 176.352 24.9572 176.337C24.3439 176.323 23.8904 176.296 23.5968 176.259Z" fill="white"/>
<path d="M32.1944 170.859L29.9363 177.146C29.6092 178.052 29.0869 178.505 28.3695 178.505C28.1428 178.505 27.8919 178.466 27.6168 178.388V177.703C27.8436 177.755 28.0387 177.781 28.2023 177.781C28.481 177.781 28.7134 177.701 28.8992 177.541C29.0888 177.381 29.2765 176.995 29.4623 176.382L27.5164 170.859H28.4086L29.914 175.089L31.4584 170.859H32.1944Z" fill="white"/>
<path d="M93.2246 175.028L94.061 174.855C94.2468 175.564 94.8341 175.919 95.8229 175.919C96.1871 175.919 96.4957 175.838 96.7484 175.674C97.0012 175.511 97.1276 175.28 97.1276 174.983C97.1276 174.541 96.806 174.26 96.163 174.141L94.9754 173.918C94.5107 173.829 94.1409 173.655 93.8658 173.395C93.5907 173.134 93.4532 172.791 93.4532 172.363C93.4532 171.892 93.6409 171.498 94.0164 171.182C94.3918 170.862 94.8973 170.703 95.5329 170.703C96.7559 170.703 97.5104 171.18 97.7966 172.135L96.9937 172.308C96.7633 171.721 96.2894 171.427 95.572 171.427C95.2151 171.427 94.9215 171.501 94.691 171.65C94.4643 171.795 94.3509 171.999 94.3509 172.263C94.3509 172.679 94.6427 172.941 95.2263 173.049L96.3247 173.244C97.4732 173.452 98.0475 174.008 98.0475 174.911C98.0475 175.427 97.8338 175.845 97.4063 176.165C96.9789 176.48 96.4102 176.638 95.7002 176.638C94.3658 176.638 93.5406 176.101 93.2246 175.028Z" fill="white"/>
<path d="M103.144 170.859L100.886 177.146C100.558 178.052 100.036 178.505 99.3188 178.505C99.092 178.505 98.8411 178.466 98.5661 178.388V177.703C98.7928 177.755 98.988 177.781 99.1515 177.781C99.4303 177.781 99.6626 177.701 99.8485 177.541C100.038 177.381 100.226 176.995 100.412 176.382L98.4657 170.859H99.3578L100.863 175.089L102.408 170.859H103.144Z" fill="white"/>
<path d="M108.457 176.488H107.638V172.871C107.638 172.35 107.524 171.984 107.298 171.773C107.071 171.561 106.796 171.455 106.472 171.455C106.026 171.455 105.651 171.633 105.346 171.99C105.045 172.347 104.894 172.817 104.894 173.4V176.488H104.019V170.859H104.833V171.895C105.29 171.1 105.883 170.703 106.612 170.703C107.032 170.703 107.389 170.812 107.682 171.031C107.98 171.247 108.182 171.49 108.29 171.761C108.402 172.033 108.457 172.523 108.457 173.233V176.488Z" fill="white"/>
<path d="M113.927 174.81L114.741 174.977C114.592 175.457 114.302 175.854 113.871 176.17C113.44 176.482 112.933 176.638 112.349 176.638C111.58 176.638 110.957 176.369 110.481 175.83C110.005 175.288 109.768 174.578 109.768 173.701C109.768 172.806 110.015 172.083 110.509 171.533C111.003 170.979 111.624 170.703 112.371 170.703C113.107 170.703 113.698 170.957 114.144 171.466C114.594 171.975 114.825 172.737 114.836 173.751H110.743C110.743 174.602 110.922 175.176 111.279 175.473C111.635 175.771 112.013 175.919 112.41 175.919C113.128 175.919 113.633 175.55 113.927 174.81ZM113.877 173.099C113.869 172.783 113.817 172.503 113.721 172.258C113.624 172.012 113.46 171.804 113.23 171.633C113 171.459 112.723 171.371 112.399 171.371C111.964 171.371 111.594 171.527 111.29 171.84C110.989 172.152 110.819 172.572 110.782 173.099H113.877Z" fill="white"/>
<path d="M117.027 176.488H116.152V170.859H116.921V172.174C117.192 171.553 117.464 171.152 117.735 170.97C118.01 170.784 118.291 170.691 118.577 170.691C118.666 170.691 118.781 170.699 118.923 170.714V171.55H118.744C118.261 171.55 117.86 171.73 117.54 172.09C117.22 172.451 117.049 172.924 117.027 173.512V176.488Z" fill="white"/>
<path d="M124.521 169.978V170.675C124.119 170.675 123.85 170.721 123.712 170.814C123.578 170.907 123.489 171.074 123.445 171.316C123.805 171.732 123.985 172.185 123.985 172.676C123.985 173.188 123.788 173.629 123.394 173.996C123.004 174.364 122.478 174.548 121.817 174.548C121.668 174.548 121.54 174.537 121.432 174.515C121.227 174.474 121.099 174.454 121.047 174.454C120.947 174.454 120.826 174.504 120.685 174.604C120.543 174.701 120.473 174.827 120.473 174.983C120.473 175.206 120.575 175.351 120.779 175.418C120.984 175.485 121.465 175.527 122.224 175.546C122.867 175.564 123.341 175.609 123.645 175.68C123.954 175.747 124.214 175.899 124.426 176.137C124.638 176.371 124.744 176.659 124.744 177.001C124.744 178.074 123.8 178.611 121.911 178.611C121.015 178.611 120.361 178.476 119.949 178.205C119.54 177.937 119.335 177.578 119.335 177.129C119.335 176.583 119.622 176.207 120.194 176.003C119.826 175.761 119.642 175.459 119.642 175.094C119.642 174.66 119.902 174.327 120.423 174.097C119.936 173.703 119.692 173.207 119.692 172.609C119.692 172.051 119.9 171.594 120.317 171.238C120.733 170.881 121.24 170.703 121.839 170.703C122.263 170.703 122.647 170.782 122.993 170.942C123.049 170.574 123.177 170.32 123.378 170.179C123.582 170.037 123.891 169.967 124.303 169.967C124.344 169.967 124.417 169.971 124.521 169.978ZM121.844 173.879C122.216 173.879 122.519 173.766 122.753 173.539C122.987 173.309 123.104 173.012 123.104 172.648C123.104 172.276 122.982 171.973 122.736 171.739C122.495 171.501 122.201 171.382 121.856 171.382C121.525 171.382 121.231 171.494 120.975 171.717C120.718 171.936 120.59 172.25 120.59 172.659C120.59 173.023 120.705 173.318 120.936 173.545C121.166 173.768 121.469 173.879 121.844 173.879ZM120.796 176.259C120.387 176.438 120.183 176.696 120.183 177.034C120.183 177.32 120.35 177.541 120.685 177.697C121.023 177.857 121.452 177.937 121.973 177.937C122.456 177.937 122.898 177.868 123.3 177.731C123.701 177.597 123.902 177.368 123.902 177.045C123.902 176.871 123.842 176.728 123.723 176.616C123.604 176.505 123.441 176.434 123.233 176.404C123.028 176.375 122.67 176.352 122.157 176.337C121.543 176.323 121.09 176.296 120.796 176.259Z" fill="white"/>
<path d="M129.394 170.859L127.136 177.146C126.809 178.052 126.286 178.505 125.569 178.505C125.342 178.505 125.091 178.466 124.816 178.388V177.703C125.043 177.755 125.238 177.781 125.402 177.781C125.68 177.781 125.913 177.701 126.099 177.541C126.288 177.381 126.476 176.995 126.662 176.382L124.716 170.859H125.608L127.113 175.089L128.658 170.859H129.394Z" fill="white"/>
<path d="M47.524 88.5962C42.7997 70.9093 42.7254 48.7061 52.3006 21.7037L74.2233 0V19.3171L59.73 33.3659C44.6219 69.1902 53.435 97.4634 59.73 107.122C46.3787 69.8927 65.2931 40.9756 76.4192 31.1707V60.1463C59.7209 86.7175 68.6663 119.016 75.765 133.086C65.2878 124.257 53.1274 109.575 47.524 88.5962Z" fill="white"/>
<path d="M28.5476 45.2195L50.5308 23.4559C41.6311 49.6917 41.7999 71.4207 46.4632 88.8794C52.0055 109.629 63.8816 124.293 74.3175 133.294C37.3112 114.057 34.465 69.4279 37.7706 49.1707L23.2773 62.7805L28.5476 45.2195Z" fill="white"/>
<path d="M79.9327 68.9268V78.1873C84.7412 81.9192 89.5812 87.7764 91.695 95.5971C94.2065 104.889 92.8441 116.856 83.1836 131.186C111.003 103.784 92.8206 78.3744 79.9327 68.9268Z" fill="white"/>
<path d="M90.6351 95.8834C93.0111 104.674 91.8313 116.114 82.679 129.964C87.1589 119.416 91.3589 99.9351 79.9327 86.9268V79.5908C84.3547 83.2134 88.692 88.6944 90.6351 95.8834Z" fill="white"/>
<ellipse cx="86.9596" cy="60.5852" rx="8.78378" ry="8.78049" fill="white"/>
</svg>
